<?xml version="1.0" encoding="UTF-8" standalone="no"?><!DOCTYPE svg PUBLIC "-//W3C//DTD SVG 1.1//EN" "http://www.w3.org/Graphics/SVG/1.1/DTD/svg11.dtd"><svg width="100%" height="100%" viewBox="0 0 32 32" version="1.1" xmlns="http://www.w3.org/2000/svg" xmlns:xlink="http://www.w3.org/1999/xlink" xml:space="preserve" xmlns:serif="http://www.serif.com/" style="fill-rule:evenodd;clip-rule:evenodd;stroke-linejoin:round;stroke-miterlimit:2;"><rect id="Artboard3" x="-1829" y="-264" width="2609.95" height="1528.11" style="fill:none;"/><g><rect x="-0" y="-0" width="32" height="32" style="fill:#fff;"/><g><path d="M24.902,19.886c-0,-5.511 -3.427,-9.22 -8.584,-9.22c-5.334,-0 -9.22,3.85 -9.22,9.078c-0,5.405 3.78,9.291 8.937,9.291c3.674,-0 6.288,-1.378 8.019,-4.274l-3.25,-1.449c-0.954,1.625 -2.402,2.367 -4.592,2.367c-2.932,0 -4.84,-1.625 -5.299,-4.486l13.918,-0.036c0,0 0.071,-0.6 0.071,-1.271Zm-13.954,-1.731c0.53,-2.685 2.438,-4.204 5.334,-4.204c2.932,0 4.875,1.66 4.981,4.168l-10.315,0.036Z" style="fill-rule:nonzero;"/><path d="M16.282,8.299c5.158,0 6.041,-5.334 6.041,-5.334l-3.109,-0c0,-0 -0.459,2.579 -2.932,2.579c-2.437,-0 -2.896,-2.579 -2.896,-2.579l-3.144,-0c-0,-0 0.954,5.334 6.04,5.334Z" style="fill-rule:nonzero;"/></g></g></svg>